<svg width="300" height="200" viewBox="0 0 300 200" fill="none" xmlns="http://www.w3.org/2000/svg">
<rect width="300" height="200" fill="#181926"/>
<g filter="url(#filter0_d_4_2)">
<path d="M50 45C50 39.4772 54.4772 35 60 35H240C245.523 35 250 39.4772 250 45V155C250 160.523 245.523 165 240 165H60C54.4772 165 50 160.523 50 155V45Z" fill="#1E2030"/>
</g>
<g filter="url(#filter1_d_4_2)">
<path d="M93 87V105.56C93 107.827 93.52 109.547 94.56 110.72C95.6267 111.867 97.1867 112.44 99.24 112.44C101.293 112.44 102.84 111.867 103.88 110.72C104.947 109.547 105.48 107.827 105.48 105.56V87H108.84V105.56C108.84 108.813 107.987 111.293 106.28 113C104.573 114.707 102.227 115.56 99.24 115.56C96.2533 115.56 93.9067 114.707 92.2 113C90.4933 111.293 89.64 108.813 89.64 105.56V87H93ZM130.012 113.56H130.492V87H133.852V115H127.132L119.052 88.44H118.572V115H115.212V87H121.932L130.012 113.56ZM147.144 101.56H159.624V115H156.504V111.64H156.024C155.571 112.813 154.771 113.76 153.624 114.48C152.478 115.2 151.144 115.56 149.624 115.56C146.611 115.56 144.238 114.587 142.504 112.64C140.798 110.693 139.944 107.853 139.944 104.12V97.88C139.944 94.2533 140.811 91.44 142.544 89.44C144.278 87.44 146.691 86.44 149.784 86.44C151.384 86.44 152.798 86.7067 154.024 87.24C155.251 87.7467 156.278 88.4667 157.104 89.4C157.931 90.3067 158.558 91.3867 158.984 92.64C159.411 93.8667 159.624 95.1867 159.624 96.6V97.08H156.264V96.6C156.264 95.6933 156.131 94.8133 155.864 93.96C155.624 93.1067 155.238 92.36 154.704 91.72C154.198 91.0533 153.531 90.5333 152.704 90.16C151.904 89.76 150.931 89.56 149.784 89.56C147.624 89.56 145.998 90.3467 144.904 91.92C143.838 93.4933 143.304 95.56 143.304 98.12V103.88C143.304 106.627 143.838 108.747 144.904 110.24C145.998 111.707 147.651 112.44 149.864 112.44C151.864 112.44 153.424 111.8 154.544 110.52C155.691 109.24 156.264 107.453 156.264 105.16V104.68H147.144V101.56ZM181.117 108.04H169.117L167.077 115H163.477L171.957 87H178.277L186.757 115H183.157L181.117 108.04ZM174.877 88.44L170.037 104.92H180.197L175.357 88.44H174.877ZM191.529 87H209.289V90.12H202.089V111.88H209.289V115H191.529V111.88H198.729V90.12H191.529V87Z" fill="#CAD3F5"/>
</g>
<defs>
<filter id="filter0_d_4_2" x="35" y="20" width="230" height="160" filterUnits="userSpaceOnUse" color-interpolation-filters="sRGB">
<feFlood flood-opacity="0" result="BackgroundImageFix"/>
<feColorMatrix in="SourceAlpha" type="matrix" values="0 0 0 0 0 0 0 0 0 0 0 0 0 0 0 0 0 0 127 0" result="hardAlpha"/>
<feOffset/>
<feGaussianBlur stdDeviation="7.5"/>
<feComposite in2="hardAlpha" operator="out"/>
<feColorMatrix type="matrix" values="0 0 0 0 0.490196 0 0 0 0 0.768627 0 0 0 0 0.894118 0 0 0 0.0627451 0"/>
<feBlend mode="normal" in2="BackgroundImageFix" result="effect1_dropShadow_4_2"/>
<feBlend mode="normal" in="SourceGraphic" in2="effect1_dropShadow_4_2" result="shape"/>
</filter>
<filter id="filter1_d_4_2" x="79.64" y="76.44" width="139.649" height="49.12" filterUnits="userSpaceOnUse" color-interpolation-filters="sRGB">
<feFlood flood-opacity="0" result="BackgroundImageFix"/>
<feColorMatrix in="SourceAlpha" type="matrix" values="0 0 0 0 0 0 0 0 0 0 0 0 0 0 0 0 0 0 127 0" result="hardAlpha"/>
<feOffset/>
<feGaussianBlur stdDeviation="5"/>
<feComposite in2="hardAlpha" operator="out"/>
<feColorMatrix type="matrix" values="0 0 0 0 1 0 0 0 0 1 0 0 0 0 1 0 0 0 0.3 0"/>
<feBlend mode="normal" in2="BackgroundImageFix" result="effect1_dropShadow_4_2"/>
<feBlend mode="normal" in="SourceGraphic" in2="effect1_dropShadow_4_2" result="shape"/>
</filter>
</defs>
</svg>
